<?xml version="1.0" encoding="UTF-8" standalone="no"?>
<!-- Created with Inkscape (http://www.inkscape.org/) -->

<svg
   xmlns:dc="http://purl.org/dc/elements/1.1/"
   xmlns:cc="http://creativecommons.org/ns#"
   xmlns:rdf="http://www.w3.org/1999/02/22-rdf-syntax-ns#"
   xmlns:svg="http://www.w3.org/2000/svg"
   xmlns="http://www.w3.org/2000/svg"
   version="1.1"
   width="170.32236"
   height="91.137726"
   id="svg3167">
  <defs
     id="defs3169" />
  <metadata
     id="metadata3172">
    <rdf:RDF>
      <cc:Work
         rdf:about="">
        <dc:format>image/svg+xml</dc:format>
        <dc:type
           rdf:resource="http://purl.org/dc/dcmitype/StillImage" />
        <dc:title></dc:title>
      </cc:Work>
    </rdf:RDF>
  </metadata>
  <g
     transform="translate(-101.41113,-78.368043)"
     id="layer1">
    <path
       d="m 101.41113,140.33093 1.54785,0 0,-3.19823 2.59766,0 0,9.41406 -1.65039,0 0,1.56737 5.17578,0 0,-1.56737 -1.65039,0 0,-9.41406 2.59766,0 0,3.19823 1.54785,0 0,-4.76562 -10.16602,0 0,4.76562 z m 19.38965,1.44532 c 0,-1.95802 -1.03516,-2.6416 -2.39746,-2.6416 -0.94727,0 -1.81153,0.36621 -2.90528,1.25976 l 0,-4.8291 -3.31054,0 0,1.51367 1.57226,0 0,9.52149 -1.59179,0 0,1.51366 4.8291,0 0,-1.51366 -1.49903,0 0,-4.78516 c 0.98145,-0.7373 1.86524,-1.14747 2.49512,-1.14747 0.81055,0 1.07422,0.62989 1.07422,1.4795 l 0,5.96679 3.2373,0 0,-1.51366 -1.5039,0 0,-4.82422 z m 9.98535,3.65722 c -0.64941,0.92285 -1.7041,1.43066 -2.83203,1.43066 -1.62598,0 -2.73438,-0.98632 -2.99316,-2.68553 l 7.34374,0 c 0,-3.19825 -2.23632,-5.04395 -4.66308,-5.04395 -2.2705,0 -4.58496,1.79687 -4.58496,4.62402 0,2.69531 2.03613,4.61914 4.86328,4.61914 1.86524,0 3.43261,-0.82031 4.38476,-2.27539 l -1.51855,-0.66895 z m -3.10547,-4.91211 c 1.36719,0 2.58789,1.01075 2.86621,2.39746 l -5.52733,0 c 0.2539,-1.45507 1.29393,-2.39746 2.66112,-2.39746 m 17.7295,0.94239 c 0.97656,-0.4834 1.55272,-1.44532 1.55272,-2.66602 0,-1.62597 -1.05468,-3.23242 -3.84764,-3.23242 l -5.08302,0 0,1.56739 1.52833,0 0,9.41406 -1.52833,0 0,1.56737 4.917,0 c 3.82813,0 4.63866,-2.12402 4.63866,-3.56445 0,-1.47461 -0.79101,-2.60742 -2.17772,-3.08593 m -3.95996,-4.33105 1.18164,0 c 1.66503,0 2.40722,0.55663 2.40722,1.79687 0,0.98144 -0.4834,1.86523 -2.17774,1.86523 l -1.41112,0 0,-3.6621 z m 1.4746,9.41406 -1.4746,0 0,-4.18458 1.51855,0 c 2.14355,0 2.68066,1.02052 2.68066,2.06055 0,1.36719 -0.75684,2.12403 -2.72461,2.12403 m 14.18457,-7.15333 -3.23242,0 0,1.51368 1.49415,0 0,4.73632 c -0.77638,0.6836 -1.77735,1.10352 -2.49513,1.10352 -0.66893,0 -1.03027,-0.39063 -1.03027,-1.27442 l 0,-6.0791 -2.97852,0 0,1.51368 1.23535,0 0,4.6582 c 0,1.82617 0.83008,2.7002 2.42677,2.7002 0.89844,0 1.86035,-0.39063 2.8418,-1.14746 l 0,0.99608 3.23241,0 0,-1.51366 -1.49414,0 0,-7.20704 z m 3.97462,8.24219 c 0.62987,0.42969 1.34765,0.62989 2.29003,0.62989 2.00195,0 3.34961,-1.07423 3.34961,-2.66603 0,-0.61035 -0.22461,-1.28906 -0.73731,-1.80663 -1.44531,-1.44043 -4.80956,-0.59082 -4.80956,-2.05567 0,-0.64452 0.61035,-1.06933 1.52831,-1.06933 0.88868,0 1.54298,0.32715 2.04101,1.06933 l 0,0.54199 1.51368,0 0,-2.88574 -1.51368,0 0,0.34668 c -0.58105,-0.3125 -1.32812,-0.49316 -2.1289,-0.49316 -1.77735,0 -3.07128,1.06446 -3.07128,2.56836 0,0.64453 0.27832,1.25976 0.68358,1.66503 1.66504,1.66017 4.73634,0.625 4.73634,2.25098 0,0.66895 -0.70312,1.08888 -1.792,1.08888 -1.15234,0 -1.94336,-0.53223 -2.08984,-1.40138 l 0,-0.29296 -1.53808,0 0,2.98827 1.53808,0 0,-0.47851 z m 9.86816,-11.21582 c 0,-0.57129 -0.46388,-1.04004 -1.03028,-1.04004 -0.57617,0 -1.03516,0.46875 -1.03516,1.04004 0,0.56641 0.45899,1.03027 1.03516,1.03027 0.5664,0 1.03028,-0.46386 1.03028,-1.03027 m -3.25195,10.18067 0,1.51366 4.51171,0 0,-1.51366 -1.38671,0 0,-7.20704 -3.125,0 0,1.51368 1.38671,0 0,5.69336 -1.38671,0 z m 15.49316,1.51366 0,-1.51366 -1.49902,0 0,-4.88281 c 0,-1.71388 -1.05469,-2.47071 -2.29493,-2.47071 -0.92285,0 -1.81153,0.34668 -2.97851,1.20117 l 0,-1.05469 -3.27149,0 0,1.51368 1.53809,0 0,5.69336 -1.49414,0 0,1.51366 4.73144,0 0,-1.51366 -1.5039,0 0,-4.67774 c 0.89355,-0.69825 1.81152,-1.1084 2.51465,-1.1084 0.708,0 1.0205,0.4834 1.0205,1.5918 l 0,5.708 3.23731,0 z m 9.96094,-2.01171 -1.51368,-0.66895 c -0.64941,0.92285 -1.7041,1.43066 -2.82715,1.43066 -1.63086,0 -2.73926,-0.98632 -2.99805,-2.68554 l 7.33888,0 c 0,-3.19825 -2.23634,-5.04395 -4.65822,-5.04395 -2.2705,0 -4.58495,1.79688 -4.58495,4.62403 0,2.69531 2.03613,4.61914 4.86328,4.61914 1.87011,0 3.4375,-0.82031 4.37989,-2.27539 m -4.62403,-5.58106 c 1.37206,0 2.58789,1.01075 2.86621,2.39746 l -5.52735,0 c 0.26368,-1.45508 1.29395,-2.39746 2.66114,-2.39746 m 6.06934,4.6045 0,2.98827 1.5332,0 0,-0.47851 c 0.625,0.42969 1.35254,0.62989 2.29492,0.62989 1.99219,0 3.33984,-1.07423 3.33984,-2.66603 0,-0.61035 -0.22461,-1.28906 -0.7373,-1.80664 -1.44044,-1.44042 -4.80957,-0.59081 -4.80957,-2.05566 0,-0.64452 0.61035,-1.06934 1.5332,-1.06934 0.88867,0 1.53808,0.32715 2.04102,1.06934 l 0,0.54199 1.51366,0 0,-2.88574 -1.51366,0 0,0.34668 c -0.57617,-0.3125 -1.33301,-0.49317 -2.13379,-0.49317 -1.76758,0 -3.06152,1.06447 -3.06152,2.56837 0,0.64453 0.27344,1.25976 0.68359,1.66503 1.66503,1.66017 4.72656,0.625 4.72656,2.25098 0,0.66895 -0.69824,1.08887 -1.79199,1.08887 -1.14257,0 -1.9336,-0.53222 -2.08496,-1.40137 l 0,-0.29296 -1.5332,0 z m 8.46679,0 0,2.98827 1.52832,0 0,-0.47851 c 0.62989,0.42969 1.35254,0.62989 2.29004,0.62989 2.00195,0 3.34961,-1.07423 3.34961,-2.66603 0,-0.61035 -0.22461,-1.28906 -0.7373,-1.80664 -1.44043,-1.44042 -4.80957,-0.59081 -4.80957,-2.05566 0,-0.64452 0.61035,-1.06934 1.5332,-1.06934 0.88867,0 1.53809,0.32715 2.03614,1.06934 l 0,0.54199 1.51367,0 0,-2.88574 -1.51367,0 0,0.34668 c -0.57129,-0.3125 -1.32813,-0.49317 -2.12892,-0.49317 -1.77246,0 -3.06152,1.06447 -3.06152,2.56837 0,0.64453 0.27344,1.25976 0.6836,1.66503 1.66504,1.66017 4.72656,0.625 4.72656,2.25098 0,0.66895 -0.70312,1.08887 -1.78711,1.08887 -1.14746,0 -1.94824,-0.53222 -2.09473,-1.40137 l 0,-0.29296 -1.52832,0 z m 21.56739,-0.49805 c 0,-1.02539 -0.40528,-2.03614 -1.06934,-2.70508 -1.46484,-1.45507 -4.47265,-1.28906 -5.4541,-2.27539 -0.25879,-0.25391 -0.42969,-0.64453 -0.42969,-1.06446 0,-0.96679 0.83496,-1.61132 2.11426,-1.61132 1.14747,0 1.97754,0.45898 2.66113,1.46485 l 0,0.86425 1.54785,0 0,-3.78907 -1.54785,0 0,0.83008 c -0.8496,-0.64941 -1.80664,-0.97656 -2.81738,-0.97656 -1.875,0 -3.65235,1.10352 -3.65235,3.43262 0,1.05956 0.35157,1.79688 0.83008,2.28028 1.95801,1.958 5.89356,1.10351 5.89356,3.56445 0,1.20117 -0.9375,2.10448 -2.21191,2.10448 -1.20606,0 -2.13379,-0.72265 -2.92481,-2.07031 l 0,-1.10351 -1.54785,0 0,4.54101 1.54785,0 0,-1.03027 c 0.90332,0.83008 1.94825,1.23536 3.08593,1.23536 2.28028,0 3.97462,-1.57227 3.97462,-3.69141 m 9.78516,1.12305 -1.43068,-0.66407 c -0.51757,1.11328 -1.45507,1.71387 -2.62206,1.71387 -1.56739,0 -2.66114,-1.26953 -2.66114,-3.13477 0,-1.75781 1.03517,-2.96386 2.59278,-2.96386 0.62011,0 1.15722,0.18554 1.54785,0.52245 0.40527,0.34669 0.66895,0.84474 0.76172,1.45996 l 1.54785,0 0,-3.29101 -1.54785,0 0,0.59083 c -0.64941,-0.55665 -1.51367,-0.84962 -2.46093,-0.84962 -2.3877,0 -4.29201,2.03614 -4.29201,4.5459 0,2.2168 1.43067,4.69727 4.45802,4.69727 1.9043,0 3.33983,-0.90333 4.10645,-2.62695 m 10.92285,2.36327 0,-1.51366 -1.49903,0 0,-4.82423 c 0,-1.95801 -1.03027,-2.6416 -2.40722,-2.6416 -0.9375,0 -1.81153,0.36622 -2.9004,1.25977 l 0,-4.8291 -3.30567,0 0,1.51367 1.56739,0 0,9.52149 -1.58691,0 0,1.51366 4.82421,0 0,-1.51366 -1.49902,0 0,-4.78516 c 0.98633,-0.7373 1.87012,-1.14747 2.5,-1.14747 0.81055,0 1.07422,0.62989 1.07422,1.4795 l 0,5.96679 3.23243,0 z m 5.3955,-8.97949 c -2.6416,0 -4.5996,1.97754 -4.5996,4.62403 0,2.6416 1.958,4.61914 4.58495,4.61914 2.62207,0 4.59961,-1.97754 4.59961,-4.61914 0,-2.64649 -1.958,-4.62403 -4.58496,-4.62403 m -0.0146,7.57324 c -1.55761,0 -2.73437,-1.25487 -2.73437,-2.94921 0,-1.68945 1.17676,-2.96388 2.73437,-2.96388 1.56739,0 2.74903,1.27443 2.74903,2.96388 0,1.69434 -1.18164,2.94921 -2.74903,2.94921 m 10.60548,-7.57324 c -2.6416,0 -4.59962,1.97754 -4.59962,4.62403 0,2.6416 1.95802,4.61914 4.58008,4.61914 2.63184,0 4.6045,-1.97754 4.6045,-4.61914 0,-2.64649 -1.95801,-4.62403 -4.58496,-4.62403 m -0.0195,7.57324 c -1.54785,0 -2.73438,-1.25487 -2.73438,-2.94921 0,-1.68945 1.18653,-2.96388 2.73438,-2.96388 1.57715,0 2.75391,1.27443 2.75391,2.96388 0,1.69434 -1.17676,2.94921 -2.75391,2.94921 m 9.07715,-0.10737 0,-11.03517 -3.29102,0 0,1.51368 1.55274,0 0,9.52149 -1.58691,0 0,1.51366 4.67285,0 0,-1.51366 -1.34766,0 z m -135.55175,15.43456 1.47461,0 0,-1.51368 -1.47461,0 0,-1.74316 c 0,-0.58594 0.23437,-0.94237 0.66406,-0.94237 0.39063,0 0.61035,0.2832 0.66406,0.8496 l 1.51368,-0.23925 c -0.2002,-1.29395 -1.01075,-2.01173 -2.25099,-2.01173 -1.24022,0 -2.3291,0.77149 -2.3291,2.51465 l 0,1.57227 -1.27929,0 0,1.51367 1.27929,0 0,5.68847 -1.24022,0 0,1.52344 4.6582,0 0,-1.52344 -1.67969,0 0,-5.68847 z m 7.08007,-1.77246 c -2.64648,0 -4.60448,1.97266 -4.60448,4.61913 0,2.64649 1.958,4.62403 4.58007,4.62403 2.63184,0 4.60449,-1.97754 4.60449,-4.62403 0,-2.64647 -1.958,-4.61913 -4.58008,-4.61913 m -0.0244,7.57812 c -1.55273,0 -2.72948,-1.25976 -2.72948,-2.95899 0,-1.68456 1.17675,-2.9541 2.72948,-2.9541 1.57227,0 2.75879,1.26954 2.75879,2.9541 0,1.69923 -1.18652,2.95899 -2.75879,2.95899 m 8.87208,-5.36132 -0.0293,0 0,-1.95802 -3.125,0 0,1.51368 1.75292,0 0,5.68847 -1.72362,0 0,1.52344 5.34667,0 0,-1.52344 -1.88476,0 0,-2.49023 c 0,-1.99219 0.61035,-3.125 2.62206,-3.125 l 0.92774,0 0,-1.73828 -1.12792,0 c -1.08399,0 -2.19728,0.6543 -2.75879,2.10938 m 12.18261,-4.88282 -1.7334,1.57227 0,1.35253 -1.12792,0 0,1.51368 1.12792,0 0,5.28809 c 0,1.51367 0.84961,2.0752 2.07031,2.0752 0.40039,0 0.86914,-0.11713 1.27442,-0.24415 l 0,-1.55762 c -0.84473,0.29785 -1.61133,0.33692 -1.61133,-0.5127 l 0,-5.04882 1.61133,0 0,-1.51368 -1.61133,0 0,-2.9248 z m 11.17188,5.30762 c 0,-1.958 -1.04004,-2.6416 -2.40723,-2.6416 -0.9375,0 -1.81152,0.3711 -2.90527,1.25488 l 0,-4.8291 -3.30567,0 0,1.52344 1.57227,0 0,9.51171 -1.5918,0 0,1.52344 4.8291,0 0,-1.52344 -1.5039,0 0,-4.78515 c 0.98143,-0.73731 1.875,-1.14258 2.50487,-1.14258 0.81055,0 1.06446,0.625 1.06446,1.4795 l 0,5.97167 3.2373,0 0,-1.52344 -1.49413,0 0,-4.81933 z m 6.83593,-2.6416 c -2.27051,0 -4.58496,1.792 -4.58496,4.61913 0,2.69532 2.03125,4.62403 4.86328,4.62403 1.87012,0 3.4375,-0.81543 4.38477,-2.27539 l -1.52344,-0.66406 c -0.64453,0.92285 -1.69433,1.4209 -2.82227,1.4209 -1.63085,0 -2.73438,-0.97656 -2.99316,-2.68555 l 7.33887,0 c 0,-3.19336 -2.24121,-5.03906 -4.66309,-5.03906 m -2.62695,3.78906 c 0.26367,-1.45996 1.29394,-2.40723 2.67089,-2.40723 1.36719,0 2.57813,1.02052 2.86134,2.40723 l -5.53223,0 z m 29.75586,-7.36328 -4.60449,0 0,1.57227 1.49903,0 -2.30958,8.21288 -0.0341,0 -2.29493,-8.21288 1.47949,0 0,-1.57227 -5.76661,0 0,1.57227 1.49903,0 -2.26074,8.21288 -0.0341,0 -2.35351,-8.21288 1.50391,0 0,-1.57227 -4.80469,0 0,1.57227 1.51367,0 3.19825,11.11327 1.73827,0 2.78809,-9.93164 0.039,0 2.80762,9.93164 1.79199,0 3.125,-11.11327 1.47949,0 0,-1.57227 z m 3.98437,3.57422 c -2.6416,0 -4.5996,1.97266 -4.5996,4.61913 0,2.64649 1.958,4.62403 4.58495,4.62403 2.62208,0 4.59962,-1.97754 4.59962,-4.62403 0,-2.64647 -1.958,-4.61913 -4.58497,-4.61913 m -0.0146,7.57812 c -1.55273,0 -2.73438,-1.25976 -2.73438,-2.95899 0,-1.68456 1.18165,-2.9541 2.73438,-2.9541 1.57227,0 2.74902,1.26954 2.74902,2.9541 0,1.69923 -1.17675,2.95899 -2.74902,2.95899 m 8.87207,-5.36132 -0.0341,0 0,-1.95802 -3.125,0 0,1.51368 1.75781,0 0,5.68847 -1.72364,0 0,1.52344 5.3418,0 0,-1.52344 -1.87988,0 0,-2.49023 c 0,-1.99219 0.60547,-3.125 2.61718,-3.125 l 0.92774,0 0,-1.73828 -1.12792,0 c -1.09375,0 -2.20215,0.6543 -2.75392,2.10938 m 7.91017,-5.79102 -3.29103,0 0,1.52344 1.55274,0 0,9.51171 -1.58692,0 0,1.52344 4.67285,0 0,-1.52344 -1.34765,0 0,-11.03515 z m 11.55272,0 -3.39844,0 0,1.52344 1.66016,0 0,3.45215 c -0.86426,-0.92774 -1.88476,-1.40137 -3.06152,-1.40137 -2.46094,0 -4.33105,2.01172 -4.33105,4.65332 0,3.125 2.31445,4.48243 4.29199,4.48243 1.21582,0 2.19726,-0.47364 3.10058,-1.4502 l 0,1.29882 3.32519,0 0,-1.52344 -1.58691,0 0,-11.03515 z m -4.52636,11.1914 c -1.62598,0 -2.75392,-1.2207 -2.75392,-3.01757 0,-1.73829 1.18166,-3.03223 2.73438,-3.03223 1.66505,0 2.80762,1.20118 2.80762,2.95899 0,1.77734 -1.167,3.09081 -2.78808,3.09081 m -35.47372,-74.140617 -0.89355,0 c -0.14649,0.820312 -0.31739,3.110352 -1.71875,4.516602 -1.26465,1.254883 -2.30469,1.37207 -3.94531,1.37207 l -4.56543,0 0,-9.790038 2.04101,0 c 2.76855,0 3.14942,1.977538 3.58887,4.121093 l 0.79101,0 0,-8.857422 -0.79101,0 c -0.44922,2.211915 -0.73243,3.85254 -3.98438,3.85254 l -1.6455,0 0,-9.033204 4.43359,0 c 4.2041,0 4.63379,2.949219 5.13672,4.785156 l 0.88379,0 0,-5.761719 -17.13867,0 0,0.976563 3.23242,0 0,19.707031 -3.23242,0 0,0.971675 17.80761,0 0,-6.860347 z m -37.07541,5.888635 c 1.19628,0 2.06542,1.542972 5.98143,1.542972 2.1045,0 4.06739,-0.76172 5.58107,-2.250979 1.29882,-1.28418 2.08496,-3.007813 2.08496,-4.833985 0,-7.924806 -12.6709,-5.595703 -12.6709,-11.157227 0,-2.451171 2.19237,-3.632813 4.29687,-3.632813 3.27148,0 4.88282,2.636719 5.44434,5.449219 l 0.89355,0 0,-5.800781 -0.84472,0 c -0.10738,0.668945 -0.32715,0.839844 -0.62013,0.839844 -0.708,0 -2.19237,-1.416015 -4.87304,-1.416015 -3.40821,0 -6.4209,2.314452 -6.4209,6.196288 0,6.079102 7.63184,5.644532 10.76172,8.374025 0.81055,0.71289 1.24512,1.665038 1.24512,2.74414 0,1.108398 -0.32227,2.021485 -1.02051,2.88086 -0.97168,1.18164 -2.39257,1.679684 -3.85743,1.679684 -4.31152,0 -5.78612,-2.636717 -6.64062,-6.503904 l -0.97656,0 0,6.860354 0.84472,0 c 0.13184,-0.854494 0.5713,-0.971682 0.79103,-0.971682 m 20.19531,17.241212 c 1.80664,1.80176 2.21679,4.56543 2.43652,5.89355 l 1.15723,0 c 0.21484,-1.32812 0.63476,-4.09179 2.43164,-5.89355 1.94336,-1.9336 4.20898,-2.08008 6.06934,-2.08008 l 55.97167,0 0,-1.19629 -56.01562,0 c -3.01758,0 -4.87306,0.38086 -6.90918,2.417 -1.68945,1.69433 -2.03614,3.71582 -2.12403,4.3164 -0.0879,-0.60058 -0.43457,-2.62207 -2.12402,-4.3164 -2.0459,-2.03614 -3.90136,-2.417 -6.90918,-2.417 l -56.37695,0 0,1.19629 56.32812,0 c 1.86523,0 4.13086,0.14648 6.06446,2.08008 m -39.94629,-17.241212 -3.1836,0 0,-18.120118 12.26563,19.26758 1.06445,0 0,-20.854494 3.1836,0 0,-0.976562 -7.43653,0 0,0.976562 3.18848,0 0,14.526368 -9.87793,-15.50293 -6.64062,0 0,0.976562 3.18847,0 0,19.707032 -3.18847,0 0,0.971682 7.43652,0 0,-0.971682 z m -12.57325,0 -3.19335,0 0,-19.707032 3.19335,0 0,-0.976562 -9.87304,0 0,0.976562 3.22754,0 0,19.707032 -3.22754,0 0,0.971682 9.87304,0 0,-0.971682 z m 108.90138,1.103512 c 3.67187,0 6.40625,-0.51757 9.07714,-3.183589 1.74317,-1.748048 3.14453,-4.296875 3.14453,-7.617188 0,-3.4375 -1.35742,-6.601563 -4.02343,-8.59375 -2.48535,-1.85547 -5.21973,-2.48047 -8.33497,-2.48047 -1.80663,0 -3.6377,0.08789 -5.44433,0.08789 l -3.4082,0 0,0.976563 3.18847,0 0,19.707031 -3.18847,0 0,0.971673 2.96386,0 c 3.20801,0 4.75586,0.13184 6.0254,0.13184 m -2.34864,-20.859373 c 0.35645,-0.01465 1.32813,-0.03906 2.21191,-0.03906 2.40723,0 4.93164,0.795899 6.51368,2.875977 1.45996,1.918945 1.9873,4.804688 1.9873,7.353516 0,3.652343 -1.22559,6.401367 -2.69531,7.880859 -1.51368,1.513672 -3.41797,1.860352 -5.71289,1.860352 -0.83496,0 -2.30469,-0.131837 -2.30469,-0.131837 l 0,-19.799805 z m -25.81542,19.75586 -3.0127,0 2.34375,-6.552735 7.08496,0 2.39257,6.552735 -3.00781,0 0,0.971673 9.38476,0 0,-0.971673 -2.6123,0 -7.8418,-21.083985 -1.10351,0 -7.79297,21.083985 -2.60742,0 0,0.971673 6.77247,0 0,-0.971673 z m 2.87597,-16.166993 3.19335,8.637696 -6.38671,0 3.19336,-8.637696 z m 30.91309,76.489256 0,-0.0195 c 0.54199,-0.0684 0.8789,-0.4004 0.8789,-0.90332 0,-0.45899 -0.28809,-0.89844 -1.03028,-0.89844 l -1.58691,0 0,3.21777 0.65918,0 0,-1.31836 0.12212,0 c 0.26368,0 0.36133,0.005 0.52246,0.1709 0.24414,0.24903 0.42969,0.60059 0.69824,1.14746 l 0.80566,0 c -0.625,-1.06445 -0.708,-1.2793 -1.06932,-1.39648 m -0.49805,-0.43457 -0.58106,0 0,-0.8838 0.59082,0 c 0.4541,0 0.67383,0.16603 0.67383,0.43947 0,0.34178 -0.3125,0.44433 -0.68359,0.44433 m 0.13184,-2.82715 c -1.67969,0 -3.03223,1.35742 -3.03223,3.0371 0,1.67969 1.35254,3.03224 3.03223,3.03224 1.67968,0 3.0371,-1.35255 3.0371,-3.03224 0,-1.67968 -1.35742,-3.0371 -3.0371,-3.0371 m 0,5.46875 c -1.34767,0 -2.43165,-1.09375 -2.43165,-2.44141 0,-1.34277 1.08398,-2.42187 2.43165,-2.42187 1.34765,0 2.43652,1.0791 2.43652,2.42187 0,1.34766 -1.08887,2.44141 -2.43652,2.44141"
       id="path114"
       style="fill:#006e4f;fill-opacity:1;fill-rule:nonzero;stroke:none" />
  </g>
</svg>
