<?xml version="1.0" encoding="utf-8"?>
<!-- Generator: Adobe Illustrator 25.0.1, SVG Export Plug-In . SVG Version: 6.00 Build 0)  -->
<svg version="1.1" id="Ebene_1" xmlns="http://www.w3.org/2000/svg" xmlns:xlink="http://www.w3.org/1999/xlink" x="0px" y="0px"
	 width="247px" height="60px" viewBox="0 0 247 60" style="enable-background:new 0 0 247 60;" xml:space="preserve">
<style type="text/css">
	.st0{fill:#FFED00;}
	.st1{clip-path:url(#SVGID_2_);}
	.st2{clip-path:url(#SVGID_4_);}
	.st3{clip-path:url(#SVGID_6_);}
</style>
<g>
	<rect x="206.8" y="10" class="st0" width="39.6" height="39.6"/>
	<g>
		<g>
			<g>
				<defs>
					<rect id="SVGID_1_" y="10" width="246.4" height="40"/>
				</defs>
				<clipPath id="SVGID_2_">
					<use xlink:href="#SVGID_1_"  style="overflow:visible;"/>
				</clipPath>
				<path class="st1" d="M189.5,17.6h-3.2v14.5h3.2v-3.7l3.4,3.7h4.5l-4.8-4.8l4.5-4.2h-4.3l-3.3,3.2V17.6L189.5,17.6z M178,23.1
					h-3.2v9h3.2v-4.6c0-1.1,0.4-2.1,1.7-2.1c1.6,0,1.4,1.5,1.4,2.3v4.4h3.2v-5.5c0-2.2-1-3.7-3.4-3.7c-1.3,0-2.2,0.4-2.9,1.4l0,0
					L178,23.1L178,23.1z M172.6,23.1h-3.2V24c-0.6-0.8-1.8-1.2-2.8-1.2c-2.6,0-4.5,2.2-4.5,4.7s1.8,4.8,4.5,4.8c1,0,2.2-0.4,2.7-1.3
					l0,0v1h3.2L172.6,23.1L172.6,23.1z M167.5,25.6c1.3,0,2.1,1,2.1,2c0,1.1-0.7,2-2.1,2c-1.3,0-2.1-0.9-2.1-2
					C165.5,26.5,166.2,25.6,167.5,25.6 M155.8,25.6c1.3,0,2.1,1,2.1,2c0,1.1-0.7,2-2.1,2c-1.3,0-2.1-0.9-2.1-2
					C153.8,26.5,154.6,25.6,155.8,25.6 M150.7,32.1h3.2v-1l0,0c0.6,0.9,1.7,1.3,2.7,1.3c2.6,0,4.5-2.2,4.5-4.8
					c0-2.6-1.8-4.7-4.5-4.7c-1,0-2.1,0.4-2.8,1.2v-6.4h-3.2L150.7,32.1L150.7,32.1z M148.9,23.4c-0.9-0.4-1.9-0.6-3-0.6
					c-1.9,0-3.9,1-3.9,3.2c0,1.6,1,2.1,2,2.4c1,0.2,2,0.3,2,1c0,0.5-0.6,0.6-1,0.6c-0.8,0-1.8-0.5-2.5-0.9l-1.1,2.2
					c1.1,0.6,2.3,1,3.6,1c2.1,0,4.2-1,4.2-3.4c0-1.7-1.1-2.4-2.6-2.6c-0.5-0.1-1.4-0.2-1.4-0.8c0-0.5,0.6-0.6,1-0.6
					c0.6,0,1.2,0.2,1.7,0.5L148.9,23.4z M140.5,27.8c0-3-1.8-5-4.9-5c-2.9,0-5,1.8-5,4.8c0,3.1,2.2,4.7,5.2,4.7c1,0,2.1-0.2,2.9-0.7
					c0.8-0.5,1.4-1.3,1.7-2.3h-3c-0.3,0.6-0.8,0.8-1.5,0.8c-1.3,0-2-0.7-2-2h6.7L140.5,27.8L140.5,27.8z M133.8,26.3
					c0.2-1,1-1.4,1.9-1.4c0.9,0,1.7,0.6,1.8,1.4H133.8z M124,25.6c1.3,0,2.1,1,2.1,2c0,1.1-0.7,2-2.1,2c-1.3,0-2.1-0.9-2.1-2
					C121.9,26.5,122.7,25.6,124,25.6 M125.9,32.1h3.2V17.6h-3.2V24c-0.6-0.8-1.8-1.2-2.8-1.2c-2.6,0-4.5,2.2-4.5,4.7
					s1.8,4.8,4.5,4.8c1,0,2.2-0.4,2.7-1.3l0,0L125.9,32.1L125.9,32.1z M110.8,23.1h-3.2v9h3.2v-4.6c0-1.1,0.4-2.1,1.7-2.1
					c1.6,0,1.4,1.5,1.4,2.3v4.4h3.2v-5.5c0-2.2-1-3.7-3.4-3.7c-1.3,0-2.2,0.4-2.9,1.4l0,0L110.8,23.1L110.8,23.1z M105.5,23.1h-3.2
					V24c-0.6-0.8-1.8-1.2-2.8-1.2c-2.6,0-4.5,2.2-4.5,4.7s1.8,4.8,4.5,4.8c1,0,2.2-0.4,2.7-1.3l0,0v1h3.2L105.5,23.1L105.5,23.1z
					 M100.4,25.6c1.3,0,2.1,1,2.1,2c0,1.1-0.7,2-2.1,2c-1.3,0-2.1-0.9-2.1-2C98.3,26.5,99.1,25.6,100.4,25.6 M93.5,17.6h-3.2v14.5
					h3.2V17.6z M81.9,23.1h-3.2v9h3.2v-4.6c0-1.1,0.4-2.1,1.7-2.1c1.6,0,1.4,1.5,1.4,2.3v4.4h3.2v-5.5c0-2.2-1-3.7-3.4-3.7
					c-1.3,0-2.2,0.4-2.9,1.4l0,0L81.9,23.1L81.9,23.1z M77.2,27.8c0-3-1.8-5-4.9-5c-2.9,0-5,1.8-5,4.8c0,3.1,2.2,4.7,5.2,4.7
					c1,0,2.1-0.2,2.9-0.7c0.8-0.5,1.4-1.3,1.7-2.3h-3c-0.3,0.6-0.8,0.8-1.5,0.8c-1.3,0-2-0.7-2-2h6.6V27.8L77.2,27.8z M70.6,26.3
					c0.2-1,1-1.4,1.9-1.4c0.9,0,1.7,0.6,1.8,1.4H70.6z M66,23.4c-0.9-0.4-1.9-0.6-3-0.6c-1.9,0-3.9,1-3.9,3.2c0,1.6,1,2.1,2,2.4
					c1,0.2,2,0.3,2,1c0,0.5-0.6,0.6-1,0.6c-0.8,0-1.8-0.5-2.5-0.9l-1.1,2.2c1.1,0.6,2.3,1,3.6,1c2.1,0,4.2-1,4.2-3.4
					c0-1.7-1.1-2.4-2.6-2.6c-0.5-0.1-1.4-0.2-1.4-0.8c0-0.5,0.6-0.6,1-0.6c0.6,0,1.2,0.2,1.7,0.5L66,23.4z M55.4,17.9
					c-1,0-1.8,0.8-1.8,1.8c0,1,0.8,1.8,1.8,1.8s1.8-0.8,1.8-1.8C57.2,18.7,56.4,17.9,55.4,17.9 M57,23.1h-3.2v9H57V23.1z M52.3,27.8
					c0-3-1.8-5-4.9-5c-2.9,0-5,1.8-5,4.8c0,3.1,2.2,4.7,5.2,4.7c1,0,2.1-0.2,2.9-0.7c0.8-0.5,1.4-1.3,1.7-2.3h-3
					c-0.3,0.6-0.8,0.8-1.5,0.8c-1.3,0-2-0.7-2-2h6.7C52.3,28.2,52.3,27.8,52.3,27.8z M45.7,26.3c0.2-1,1-1.4,1.9-1.4
					c0.9,0,1.7,0.6,1.8,1.4H45.7z M39.6,25.8h2.2v-2.6h-2.2v-1.4c0-1,0.2-1.5,1.1-1.5c0.4,0,0.7,0.2,1.1,0.3v-2.7
					c-0.5-0.2-0.9-0.3-1.4-0.3c-1.2,0-2.3,0.5-3.1,1.4c-0.9,1-0.9,1.9-0.9,3.1v1.1h-1.1v2.6h1.1v6.3h3.2L39.6,25.8L39.6,25.8z
					 M32.4,25.8h2.2v-2.6h-2.2v-1.4c0-1,0.2-1.5,1.1-1.5c0.4,0,0.7,0.2,1.1,0.3v-2.7c-0.5-0.2-0.9-0.3-1.4-0.3
					c-1.2,0-2.3,0.5-3.1,1.4c-0.9,1-0.9,1.9-0.9,3.1v1.1h-1.1v2.6h1.1v6.3h3.2L32.4,25.8L32.4,25.8z M25.1,17.9
					c-1,0-1.8,0.8-1.8,1.8c0,1,0.8,1.8,1.8,1.8s1.8-0.8,1.8-1.8C26.9,18.7,26.2,17.9,25.1,17.9 M26.7,23.1h-3.2v9h3.2V23.1z
					 M21.4,23.1h-3.2V24c-0.6-0.8-1.8-1.2-2.8-1.2c-2.6,0-4.5,2.2-4.5,4.7s1.8,4.8,4.5,4.8c1,0,2.2-0.4,2.7-1.3l0,0v1h3.2L21.4,23.1
					L21.4,23.1z M16.3,25.6c1.3,0,2.1,1,2.1,2c0,1.1-0.7,2-2.1,2s-2.1-0.9-2.1-2C14.2,26.5,15,25.6,16.3,25.6 M3.4,21.5h0.3
					c1.1,0,2.4,0.2,2.4,1.7c0,1.4-1.3,1.7-2.4,1.7H3.4V21.5z M6.8,26.7c1.8-0.3,2.9-1.9,2.9-3.7c0-2.8-2-4.1-4.6-4.1H0v13.1h3.4v-5
					l0,0l3.2,5h4.2L6.8,26.7z"/>
			</g>
		</g>
		<g>
			<g>
				<defs>
					<rect id="SVGID_3_" y="10" width="246.4" height="40"/>
				</defs>
				<clipPath id="SVGID_4_">
					<use xlink:href="#SVGID_3_"  style="overflow:visible;"/>
				</clipPath>
				<path class="st2" d="M188,35.1v14.5h3.2V45c0-1,0.4-2.2,1.7-2.2s1.4,1.1,1.4,2.2v4.6h3.2v-5.4c0-2.2-1.1-3.8-3.4-3.8
					c-1.2,0-2.2,0.5-2.9,1.4l0,0v-6.6C191.1,35.1,188,35.1,188,35.1z M185.9,40.9c-0.6-0.3-1.4-0.6-2.1-0.6c-2.8,0-5,2-5,4.9
					c0,2.7,2.2,4.6,4.9,4.6c0.8,0,1.5-0.2,2.2-0.5v-2.7c-0.4,0.4-1,0.6-1.6,0.6c-1.3,0-2.2-0.9-2.2-2.2c0-1.2,1-2.2,2.2-2.2
					c0.6,0,1.2,0.2,1.7,0.6V40.9L185.9,40.9z M175.8,35.4c-1,0-1.8,0.8-1.8,1.8c0,1,0.8,1.8,1.8,1.8c1,0,1.8-0.8,1.8-1.8
					C177.5,36.2,176.7,35.4,175.8,35.4 M177.4,40.6h-3.2v9h3.2V40.6z M172.6,45.3c0-3-1.8-5-4.9-5c-2.9,0-5,1.8-5,4.8
					c0,3.1,2.2,4.8,5.2,4.8c1,0,2.1-0.2,2.9-0.7c0.8-0.5,1.4-1.3,1.7-2.3h-3c-0.3,0.6-0.8,0.8-1.5,0.8c-1.3,0-2-0.7-2-2h6.7
					L172.6,45.3L172.6,45.3z M166,43.8c0.2-1,1-1.4,1.9-1.4c0.9,0,1.7,0.6,1.8,1.4H166z M158.5,40.6h-3.2v9h3.2V46
					c0-1.5,0.5-2.7,2.2-2.7c0.5,0,0.9,0.1,1.4,0.3v-3h-0.6c-1.2,0-2.2,0.5-2.9,1.6l0,0L158.5,40.6L158.5,40.6z M150.6,40.6h-3.2v9
					h3.2V46c0-1.5,0.5-2.7,2.2-2.7c0.5,0,0.9,0.1,1.4,0.3v-3h-0.6c-1.3,0-2.2,0.5-2.9,1.6l0,0L150.6,40.6L150.6,40.6z M145.8,45.3
					c0-3-1.8-5-4.9-5c-2.9,0-5,1.8-5,4.8c0,3.1,2.2,4.8,5.2,4.8c1,0,2-0.2,2.9-0.7c0.8-0.5,1.4-1.3,1.7-2.3h-3
					c-0.3,0.6-0.8,0.8-1.5,0.8c-1.3,0-2-0.7-2-2h6.7L145.8,45.3L145.8,45.3z M139.1,43.8c0.2-1,1-1.4,1.9-1.4c0.9,0,1.7,0.6,1.8,1.4
					H139.1z M133.5,43.2h1.8v-2.6h-1.8v-2.7h-3.2v2.7h-1v2.6h1v6.3h3.2V43.2z M128.1,40.9c-0.9-0.4-1.9-0.6-3-0.6
					c-1.9,0-3.9,1-3.9,3.2c0,1.6,1,2.1,2,2.4c1,0.2,2,0.3,2,1c0,0.5-0.6,0.7-1,0.7c-0.8,0-1.8-0.5-2.5-0.9l-1.1,2.2
					c1.1,0.6,2.3,1,3.6,1c2.1,0,4.2-1,4.2-3.4c0-1.7-1.1-2.4-2.6-2.6c-0.5-0.1-1.4-0.2-1.4-0.8c0-0.5,0.6-0.6,1-0.6
					c0.6,0,1.2,0.2,1.7,0.5L128.1,40.9z M116.6,35.6c-1,0-1.8,0.8-1.8,1.7c0,1,0.8,1.7,1.8,1.7c1,0,1.7-0.7,1.7-1.7
					C118.3,36.4,117.6,35.6,116.6,35.6 M112.2,35.6c-1,0-1.8,0.8-1.8,1.7c0,1,0.8,1.7,1.8,1.7s1.7-0.7,1.7-1.7
					C113.8,36.4,113.1,35.6,112.2,35.6 M114.4,43c1.3,0,2.1,1,2.1,2c0,1.1-0.7,2-2.1,2c-1.3,0-2.1-0.9-2.1-2
					C112.3,44,113.1,43,114.4,43 M114.4,40.3c-2.9,0-5.4,1.8-5.4,4.8c0,3,2.6,4.8,5.4,4.8c2.9,0,5.4-1.8,5.4-4.8
					C119.8,42.1,117.3,40.3,114.4,40.3 M104.7,40.6h-3.2v9h3.2V46c0-1.5,0.5-2.7,2.2-2.7c0.5,0,0.9,0.1,1.4,0.3v-3h-0.6
					c-1.3,0-2.3,0.5-2.9,1.6l0,0C104.7,42.1,104.7,40.6,104.7,40.6z M100,45.3c0-3-1.8-5-4.9-5c-2.9,0-5,1.8-5,4.8
					c0,3.1,2.2,4.8,5.2,4.8c1,0,2-0.2,2.9-0.7c0.8-0.5,1.4-1.3,1.7-2.3h-3.1c-0.3,0.6-0.8,0.8-1.5,0.8c-1.3,0-2-0.7-2-2h6.6
					C100,45.6,100,45.3,100,45.3z M93.4,43.8c0.2-1,1-1.4,1.9-1.4c0.9,0,1.7,0.6,1.8,1.4H93.4z M83.8,43c1.3,0,2.1,1,2.1,2
					c0,1.1-0.7,2-2.1,2c-1.3,0-2.1-0.9-2.1-2C81.7,44,82.5,43,83.8,43 M78.6,49.6h3.2v-1l0,0c0.6,0.9,1.7,1.3,2.7,1.3
					c2.6,0,4.5-2.2,4.5-4.8c0-2.6-1.8-4.7-4.5-4.7c-1,0-2.1,0.4-2.8,1.2v-6.4h-3.2L78.6,49.6L78.6,49.6z M69.8,39.3
					c2.1,0,3.8,1.7,3.8,3.4c0,2.2-1.7,3.9-3.8,3.9c-2.1,0-3.8-1.7-3.8-3.9C66,41,67.7,39.3,69.8,39.3 M69.8,36
					c-3.8,0-7.3,2.8-7.3,6.8c0,4.2,3,7.3,7.3,7.3c4.2,0,7.3-3,7.3-7.3C77,38.8,73.5,36,69.8,36"/>
			</g>
		</g>
		<g>
			<g>
				<defs>
					<rect id="SVGID_5_" y="10" width="246.4" height="40"/>
				</defs>
				<clipPath id="SVGID_6_">
					<use xlink:href="#SVGID_5_"  style="overflow:visible;"/>
				</clipPath>
				<path class="st3" d="M226.6,34.4l-12.1,12.1l-4.7-4.7l12.1-12.1l-2.4-2.4v-4.7l-1.7-1.7v3.9l-1.7,1.7l-5.9-5.9l-1.6,1.6
					c0-1,0.3-4.6,3.1-7.3c3.1-3,6.3-1.3,7.4-0.2l5.8,5.8l-1.4,1.4l3.1,3.1l3.1-3.1l-1.4-1.4l5.8-5.8c1.1-1.1,4.2-2.9,7.4,0.2
					c2.8,2.7,3,6.2,3,7.3l-1.5-1.5l-5.9,5.9l-1.7-1.7V21l-1.7,1.7v4.7l-2.4,2.4l12.1,12.1l-4.7,4.7L226.6,34.4z"/>
			</g>
		</g>
	</g>
</g>
</svg>
