<?xml version="1.0" encoding="UTF-8" standalone="no"?>
<svg
   xmlns:dc="http://purl.org/dc/elements/1.1/"
   xmlns:cc="http://creativecommons.org/ns#"
   xmlns:rdf="http://www.w3.org/1999/02/22-rdf-syntax-ns#"
   xmlns:svg="http://www.w3.org/2000/svg"
   xmlns="http://www.w3.org/2000/svg"
   xmlns:sodipodi="http://sodipodi.sourceforge.net/DTD/sodipodi-0.dtd"
   xmlns:inkscape="http://www.inkscape.org/namespaces/inkscape"
   inkscape:version="1.0 (4035a4fb49, 2020-05-01)"
   sodipodi:docname="Shpock Logo 09.2020.svg"
   id="svg6"
   version="1.1"
   viewBox="0 0 478.784 84.505997"
   height="84.505997"
   width="478.784">
  <metadata
     id="metadata12">
    <rdf:RDF>
      <cc:Work
         rdf:about="">
        <dc:format>image/svg+xml</dc:format>
        <dc:type
           rdf:resource="http://purl.org/dc/dcmitype/StillImage" />
        <dc:title>shpock-logotype</dc:title>
      </cc:Work>
    </rdf:RDF>
  </metadata>
  <defs
     id="defs10" />
  <sodipodi:namedview
     inkscape:current-layer="svg6"
     inkscape:window-maximized="1"
     inkscape:window-y="-8"
     inkscape:window-x="-8"
     inkscape:cy="42"
     inkscape:cx="239"
     inkscape:zoom="1.842"
     fit-margin-bottom="0"
     fit-margin-right="0"
     fit-margin-left="0"
     fit-margin-top="0"
     showgrid="false"
     id="namedview8"
     inkscape:window-height="837"
     inkscape:window-width="1600"
     inkscape:pageshadow="2"
     inkscape:pageopacity="0"
     guidetolerance="10"
     gridtolerance="10"
     objecttolerance="10"
     borderopacity="1"
     bordercolor="#666666"
     pagecolor="#ffffff" />
  <title
     id="title2">shpock-logotype</title>
  <path
     d="m 22.972,25.551 c 0,5.391 4.924,7.735 18.519,9.376 18.284,2.227 30.826,7.736 30.826,23.441 0,15.94 -14.534,26.02 -33.873,26.02 C 21.097,84.388 8.205,78.645 0,67.862 L 16.644,55.087 c 4.22,6.094 11.838,10.549 21.331,10.549 8.322,0 13.948,-2.93 13.948,-7.736 0,-5.978 -5.626,-7.619 -20.394,-9.377 C 14.183,46.413 3.517,39.733 3.517,24.613 3.517,10.9 16.761,0 36.334,0 52.157,0 64.464,5.743 72.785,17.346 L 56.376,30.006 C 50.751,22.504 45.359,18.519 36.217,18.519 c -7.853,0 -13.244,3.165 -13.244,7.033 z M 129.63,1.289 v 33.52 H 99.976 V 1.289 H 79.582 V 83.333 H 99.976 V 49.578 h 29.654 v 33.755 h 20.393 V 1.289 Z m 66.338,0 h -35.631 v 82.044 h 20.394 v -22.62 h 14.416 c 23.793,0 36.568,-11.604 36.568,-29.653 0,-16.995 -12.424,-29.77 -35.747,-29.77 z m -1.993,44.655 h -13.244 v -26.84 h 13.478 c 10.197,0 16.175,4.22 16.175,13.01 0,9.025 -5.978,13.83 -16.41,13.83 z m 83.919,38.562 c 26.605,0 42.428,-19.457 42.428,-42.312 0,-22.855 -15.823,-42.077 -42.428,-42.077 -26.606,0 -42.43,19.222 -42.43,42.077 0,22.855 15.824,42.312 42.43,42.312 z m 0,-18.519 c -14.533,0 -21.566,-10.9 -21.566,-23.793 0,-12.893 7.033,-23.558 21.566,-23.558 14.533,0 21.566,10.665 21.566,23.558 0,12.893 -7.033,23.793 -21.566,23.793 z m 88.372,18.401 c 16.174,0 27.309,-5.626 35.63,-17.463 L 386.192,55.439 c -4.22,5.86 -9.728,10.43 -19.925,10.43 -13.83,0 -21.45,-10.196 -21.45,-23.675 0,-13.479 7.62,-23.676 21.45,-23.676 9.259,0 15.823,5.04 19.807,11.252 l 15.94,-12.306 C 394.396,5.977 381.972,0 366.267,0 c -26.372,0 -42.312,19.222 -42.312,42.194 0,22.972 15.94,42.194 42.312,42.194 z m 41.49,-1.055 H 428.15 V 52.626 c 14.182,0.703 27.427,12.423 27.778,30.707 h 22.856 v -0.117 c 0,-19.339 -14.651,-36.568 -35.397,-40.905 20.746,-4.336 35.397,-21.566 35.397,-41.022 H 455.928 C 455.577,19.573 442.332,31.294 428.15,32.114 V 1.289 h -20.393 v 82.044 z"
     id="Shape"
     fill="#0f1d0e"
     fill-rule="nonzero"
     style="stroke:none;stroke-width:1" />
</svg>
