<?xml version="1.0" encoding="UTF-8" standalone="no"?>
<!-- Created with Inkscape (http://www.inkscape.org/) -->

<svg
   xmlns:dc="http://purl.org/dc/elements/1.1/"
   xmlns:cc="http://creativecommons.org/ns#"
   xmlns:rdf="http://www.w3.org/1999/02/22-rdf-syntax-ns#"
   xmlns:svg="http://www.w3.org/2000/svg"
   xmlns="http://www.w3.org/2000/svg"
   version="1.1"
   width="892.91339"
   height="468.07086"
   id="svg8578">
  <defs
     id="defs8580">
    <clipPath
       id="clipPath8532">
      <path
         d="m 249.032,569.714 133.913,0 0,69.688 -133.913,0 0,-69.688 z"
         id="path8534" />
    </clipPath>
  </defs>
  <metadata
     id="metadata8583">
    <rdf:RDF>
      <cc:Work
         rdf:about="">
        <dc:format>image/svg+xml</dc:format>
        <dc:type
           rdf:resource="http://purl.org/dc/dcmitype/StillImage" />
        <dc:title></dc:title>
      </cc:Work>
    </rdf:RDF>
  </metadata>
  <g
     transform="translate(49.409989,-270.70273)"
     id="layer1">
    <g
       transform="matrix(6.6149423,0,0,-6.6149423,-1693.199,4503.8534)"
       id="g8528">
      <g
         clip-path="url(#clipPath8532)"
         id="g8530">
        <g
           transform="translate(315.1725,637.7939)"
           id="g8536">
          <path
             d="m 0,0 c -2.615,-0.233 -5.065,-1.306 -8.205,-5.088 -4.254,-5.123 -9.917,-17.233 -11.277,-21.96 2.059,5.056 8.358,17.451 11.854,21.642 2.341,2.806 4.162,4.575 7.795,5.038 1.637,0.21 4.515,-0.915 4.515,-0.915 0,0 0.615,-0.261 0.687,-0.136 0.11,0.192 -0.272,0.355 -0.272,0.355 C 3.294,-0.283 1.413,0.127 0,0"
             id="path8538"
             style="fill:#3e2782;fill-opacity:1;fill-rule:evenodd;stroke:none" />
        </g>
        <g
           transform="translate(306.4235,637.6373)"
           id="g8540">
          <path
             d="m 0,0 c 6.175,3.659 13.203,0.642 14.892,-0.301 0.003,-0.001 0.495,-0.236 0.4,-0.412 -0.057,-0.104 -0.549,0.187 -0.549,0.187 C 10.917,1.413 4.704,2.459 0.32,-0.513 -5.834,-4.684 -12.314,-17.37 -13.241,-19.471 -12.041,-15.51 -5.872,-3.478 0,0"
             id="path8542"
             style="fill:#3e2782;fill-opacity:1;fill-rule:evenodd;stroke:none" />
        </g>
        <g
           transform="translate(312.5283,616.2297)"
           id="g8544">
          <path
             d="m 0,0 c 0.139,-1.451 0.643,-4.515 1.146,-7.378 0.396,-2.249 0.996,-6.247 1.236,-6.301 0.225,-0.05 1.873,1.473 1.873,1.848 0,0.377 -2.572,5.219 -1.522,7.64 0.771,1.778 1.507,2.961 1.957,4.192 l 10e-4,0 c 0.83,2.271 1.199,4.002 1.308,6.187 0.049,0.97 0.663,1.742 1.175,2.515 0.615,0.927 1.313,2.096 1.692,4.045 0.479,1.234 1.266,2.542 1.919,3.923 0.433,0.919 0.725,1.784 1.119,2.966 0.144,0.432 0.623,0.761 1.048,1.069 0.301,0.217 0.706,0.404 0.951,0.538 0.242,0.133 -0.046,0.296 -0.215,0.248 C 12.999,21.296 11.381,20.278 11.141,19.599 11.062,19.373 10.592,17.836 10.119,16.744 9.969,16.396 9.789,16.067 9.603,15.756 9.177,15.045 8.396,14.04 8.269,13.265 7.968,11.418 7.238,10.112 6.566,9.031 6.043,8.191 5.273,7.149 5.213,6.127 5.036,3.067 4.59,1.409 4.038,0.05 L 4.017,0 C 3.465,-1.346 2.807,-2.415 2.2,-4.271 1.601,-6.098 3.271,-10.809 3.816,-11.864 L 2.652,-13.02 C 2.423,-12.016 2.045,-10.27 1.696,-8.17 1.288,-5.719 0.919,-2.788 0.869,0.002 0.853,0.941 0.873,1.864 0.939,2.747 1.013,3.735 1.54,4.897 2.027,5.836 2.12,6.011 2.807,7.147 2.823,7.382 2.825,7.417 2.82,7.483 2.757,7.518 2.566,7.618 1.036,6.038 0.44,4.754 -0.344,3.064 -0.169,1.798 -0.002,0.02 L 0,0 z m 1.195,10.358 c 0.952,-0.03 1.569,0.148 1.892,0.141 L 3.054,10.438 C 2.842,10.048 2.075,9.343 2.061,8.945 2.049,8.575 3.012,7.783 3.012,7.783 c 0,0 0.179,0.346 0.138,0.469 0,0 -0.299,0.472 -0.315,0.821 -0.03,0.628 0.831,1.38 0.831,1.38 0.1,0.118 0.221,0.286 0.025,0.405 -0.309,0.188 -1.815,0.146 -2.087,0.146 -1.749,0 -1.647,3.767 -1.504,5.013 l 0.037,0.284 c 0.035,0.438 -0.651,0.577 -1.535,0.66 -0.306,0.029 -1.233,0.02 -1.311,-0.121 -0.078,-0.144 0.137,-0.133 0.237,-0.138 0.032,0 0.497,-0.168 0.783,-0.266 0.286,-0.098 1.029,-0.21 1.383,-0.266 -0.213,-0.925 -0.416,-1.934 -0.417,-2.885 -0.003,-1.416 0.36,-2.879 1.918,-2.927 M 1.94,1.807 C 1.704,-0.3 2.051,-1.048 2.051,-1.048 2.182,-0.349 2.765,3.303 3.042,5.009 L 2.929,5.045 c 0,0 -0.764,-1.228 -0.989,-3.238 m 4.63,9.362 c 0.675,-0.011 0.862,0.949 0.976,1.415 -0.171,-0.152 -0.669,-0.597 -0.91,-0.356 -0.382,0.382 0.067,1.162 0.25,1.553 0.457,0.974 -0.321,2.4 -1.508,2.4 -1.084,0 -1.99,-0.883 -2.137,-1.422 -0.355,-1.304 0.173,-2.137 1.102,-2.289 0.213,-0.034 0.408,0.127 0.408,0.127 -1.681,1.139 -0.768,3.136 0.627,3.085 0.695,-0.027 1.04,-0.731 0.766,-1.247 C 4.56,11.453 5.623,11.183 6.57,11.169 m -9.03,6.194 c 0.324,-0.178 1.957,0.148 2.584,0.002 3.288,-0.767 7.695,-0.464 10.953,3.136 0.759,0.841 1.637,1.355 2.57,1.969 0.211,0.138 0.272,0.342 0.021,0.614 C 13.311,22.922 12.759,22.492 12.48,22.281 10.458,20.76 8.213,18.783 5.777,18.069 3.578,17.426 0.994,17.878 -1.285,17.918 c -0.522,0.008 -0.934,0 -1.074,-0.1 -0.131,-0.096 -0.329,-0.331 -0.101,-0.455"
             id="path8546"
             style="fill:#3e2782;fill-opacity:1;fill-rule:evenodd;stroke:none" />
        </g>
        <g
           transform="translate(319.9231,591.9124)"
           id="g8548">
          <path
             d="M 0,0 2.615,12.348 3.841,-0.135 0,0 z M 5.901,19.161 3.376,19.25 -1.44,-3.519 c -0.251,-1.237 -0.675,-1.465 -1.575,-1.502 l -0.021,-0.554 3.843,-0.135 0.017,0.554 c -0.587,0.02 -1.65,0.335 -1.519,1.162 l 0.571,3.443 4.049,-0.139 0.361,-4.588 -1.385,0.05 -0.018,-0.555 6.816,-0.238 0.02,0.554 -1.245,0.044 -2.573,24.584 z M -7.138,4.347 c -0.608,-8.97 -1.219,-9.674 -3.488,-9.952 l -1.134,-0.14 -2.917,23.748 1.443,0.179 -0.067,0.55 -6.978,-0.857 0.07,-0.55 1.305,0.159 2.916,-23.747 -1.306,-0.162 0.067,-0.549 11.79,1.447 -1.22,9.934 -0.481,-0.06 z M 60.203,-0.06 55.978,-7.095 c -0.574,-0.949 -1.166,-1.198 -2.771,-0.234 l 5.941,9.883 c 1.337,-0.802 1.839,-1.308 1.055,-2.614 m -0.533,2.947 -5.017,3.012 -0.285,-0.474 1.13,-0.678 -12.326,-20.509 -1.127,0.678 -0.286,-0.475 5.937,-3.568 0.285,0.475 -1.156,0.697 6.133,10.208 c 1.485,-0.889 1.936,-1.483 0.794,-3.384 l -3.584,-5.966 c -1.124,-1.869 -0.769,-3.295 1.161,-4.454 1.542,-0.927 3.178,-1.302 5.079,1.997 l -0.474,0.285 c -1.409,-1.941 -2.011,-2.468 -2.724,-2.039 -0.414,0.248 -0.271,0.89 0.424,2.047 l 1.748,2.909 c 2.158,3.591 1.595,5.142 -0.386,7.625 3.206,-0.715 5.405,0.389 7.082,3.178 1.602,2.673 1.393,6.152 -2.408,8.436 m -29.607,12.022 0.115,0.542 -3.828,0.813 -0.115,-0.542 c 1.052,-0.222 1.656,-0.705 1.389,-1.958 L 23.939,-3.578 c -0.728,-3.421 -2.436,-4.295 -3.791,-4.008 -1.457,0.309 -1.618,0.875 -1.409,1.857 l 4.685,22.05 1.287,-0.274 0.115,0.542 -6.773,1.441 -0.117,-0.543 1.322,-0.281 -4.132,-19.441 c -0.762,-3.591 0.827,-5.274 3.502,-5.843 2.981,-0.634 5.136,0.184 6.086,4.654 l 3.623,17.036 c 0.252,1.186 0.798,1.425 1.726,1.297 M 41.355,-4.334 c -0.682,-1.297 -1.235,-2.161 -2.945,-4.582 -2.268,-3.209 -3.162,-3.311 -4.844,-2.665 l -0.97,0.371 4.282,11.154 c 1.779,-0.87 1.731,-2.445 0.546,-6.887 L 37.78,-7.08 42.371,4.883 41.917,5.056 C 40.043,0.843 38.837,0.118 37.076,0.461 l 4.094,10.668 1.682,-0.645 C 44.887,9.702 44.74,7.572 43.368,0.716 l 0.421,-0.162 3.4,8.859 -11.024,4.232 -0.198,-0.519 1.228,-0.471 -8.573,-22.338 -1.23,0.472 -0.199,-0.518 11.023,-4.233 3.625,9.44 -0.486,0.188 z m -75.249,16.097 c -0.268,1.006 -0.332,2.315 0.939,2.656 1.438,0.385 2.964,-0.892 6.219,-8.229 l 0.536,0.145 -2.672,9.967 -0.367,-0.099 -1.284,-2.029 c -0.811,0.751 -1.827,1.196 -2.997,0.882 -1.739,-0.466 -3.699,-2.784 -2.678,-6.597 1.496,-5.586 9.202,-9.184 10.518,-14.102 0.619,-2.308 0.436,-2.967 -1.002,-3.352 -1.973,-0.529 -3.972,1.982 -6.809,8.823 l -0.468,-0.126 2.842,-10.603 0.334,0.09 1.497,1.906 c 0.961,-0.781 2.181,-0.92 3.353,-0.606 3.01,0.807 3.97,3.645 3.218,6.455 -1.641,6.12 -10.049,10.607 -11.179,14.819 M -54.563,8.81 c 0.785,0.366 1.136,1.332 0.771,2.117 -0.367,0.783 -1.361,1.198 -2.148,0.832 -0.846,-0.395 -1.198,-1.361 -0.802,-2.208 0.395,-0.848 1.332,-1.135 2.179,-0.741 m -6.618,-6.379 -0.302,0.465 -2.874,-1.865 0.302,-0.466 c 0.715,0.424 1.582,0.614 2.311,-1.018 l 5.96,-13.182 -10.682,12.635 0.929,0.603 -0.302,0.464 -5.053,-3.28 0.303,-0.465 0.637,0.415 15.832,-18.911 2.294,1.49 -9.606,21.342 c -0.375,0.831 -0.302,1.29 0.251,1.773 m 11.451,8.632 c 0.786,0.367 1.137,1.333 0.77,2.117 -0.365,0.783 -1.362,1.2 -2.145,0.834 -0.848,-0.395 -1.199,-1.362 -0.805,-2.209 0.396,-0.85 1.334,-1.138 2.18,-0.742 m 8.894,-25.463 c -0.847,-0.396 -1.35,-0.133 -2.128,1.53 l -8.341,17.887 c -0.716,1.539 -0.894,2.412 0.079,2.864 0.972,0.453 1.527,-0.243 2.244,-1.78 l 8.341,-17.888 c 0.776,-1.664 0.652,-2.218 -0.195,-2.613 M -51.461,8.385 c -3.609,-1.684 -3.459,-5.855 0.345,-14.014 3.806,-8.161 6.906,-10.956 10.514,-9.274 3.61,1.684 3.46,5.855 -0.344,14.014 -3.807,8.16 -6.906,10.956 -10.515,9.274"
             id="path8550"
             style="fill:#3e2782;fill-opacity:1;fill-rule:nonzero;stroke:none" />
        </g>
      </g>
    </g>
  </g>
</svg>
