<svg xmlns="http://www.w3.org/2000/svg" viewBox="0 0 385.23 359.01"><defs><style>.cls-1{fill:#143560;}.cls-2{fill:#2d9d90;}.cls-3{fill:#6dd4ad;}.cls-4{fill:#539adb;}</style></defs><g id="Ebene_2" data-name="Ebene 2"><g id="Logo"><path class="cls-1" d="M64.86,262.3c-8.51,4.38-19.08,4.26-30.17,4.26C17.54,266.56,5,275.07,5,288.61c0,7,3.35,11.73,8.77,15.21-7.87,1.94-12.64,6.45-12.64,13.41,0,5.94,3.87,10.06,9.54,12.38C3.87,332.32,0,336.83,0,342.77,0,351.15,9.41,359,35,359c24.24,0,34.81-8.38,34.81-20.37,0-11.61-10.31-19.73-31.59-19.73H34.3c-7.48,0-17.67,0-17.67-4.13,0-4.64,8.52-4.64,16.9-4.64,18,0,30.43-7.61,30.43-19.6,0-5.42-2.45-9.28-6.71-12.12a56,56,0,0,0,12.51-3.48Zm-30,71.05c12.63,0,17,2.45,17,6.71s-4.39,6.7-17,6.7-17.15-2.45-17.15-6.7S22.31,333.35,34.82,333.35Zm-.13-35.85c-8.51,0-13.28-3.35-13.28-8.89s4.77-9.16,13.28-9.16,13,3.61,13,9.16S43.2,297.5,34.69,297.5Z"/><path class="cls-1" d="M93.23,313.88V244.25H76.6v70.66c0,12.12,7,19.6,19.21,19.6h8.12V320.2H99C95,320.2,93.23,318,93.23,313.88Z"/><path class="cls-1" d="M140.17,266.56c-13.16,0-24.76,5.54-29.27,19.6l13.79,5.8c2.45-6.71,7.48-10.57,14.83-10.57,8.64,0,13.8,4.12,13.8,13v6.06c-3.87-3.61-9.67-5.8-17.28-5.8-16.25,0-26.82,8.12-26.82,20.63,0,13,10.19,20.76,25.66,20.76,8.77,0,15.6-2.71,19.6-8v6.44H170V292.73C170,274.81,156.16,266.56,140.17,266.56ZM140,323.94c-8.13,0-13.67-3.1-13.67-8.77s5.54-8.9,13.67-8.9,13.67,3.23,13.67,8.9S148.16,323.94,140,323.94Z"/><path class="cls-1" d="M211.27,281.26c8.38,0,13.8,4,17,14.18l14.7-5.29c-4.38-16.24-17-23.59-31.72-23.59-18.83,0-33.27,13.92-33.27,34.68s14.44,34.82,33.27,34.82c14.7,0,27.34-7.35,31.72-23.6l-14.7-5.28c-3.22,10.18-8.64,14.05-17,14.05s-16.12-6.57-16.12-20S202.89,281.26,211.27,281.26Z"/><rect class="cls-1" x="250.39" y="268.1" width="16.63" height="66.41"/><path class="cls-1" d="M258.77,240.51c-5.93,0-10.7,3.87-10.7,10.06s4.77,9.93,10.7,9.93,10.71-3.62,10.71-9.93S264.71,240.51,258.77,240.51Z"/><path class="cls-1" d="M307.93,266.56c-19.09,0-32.5,14.05-32.5,34.68,0,20.89,13.67,34.82,33.27,34.82,13.54,0,25.28-6.7,30.43-21.66l-14.05-5.16c-3.48,9-9.16,12.64-17,12.64-8.51,0-14.7-5.16-15.73-16.9h46.8a38.29,38.29,0,0,0,.13-3.86C339.26,280.48,326.37,266.56,307.93,266.56Zm-15.09,27.08c1.81-9.16,7-13.67,15.09-13.67,7.35,0,12.64,4.25,14.44,13.67Z"/><path class="cls-1" d="M381.75,266.56c-7,0-13,3.35-16.76,11.09V268.1H348.35v66.41H365V299.7c0-9.8,5.54-15.35,13.28-15.35h7V266.56Z"/><path class="cls-2" d="M103.16,116.39a30.77,30.77,0,0,0,7.61,4.84c18,8.07,42.33,2.94,64.94-13.7,4-2.94,8.35-6.45,13-10.16,16-12.89,36-28.93,57.72-34.85,9.72-2.65,22.38-4.39,34.13-1.18l.2,0a.5.5,0,0,0,.49-.83c-.05-.05-1.35-1.44-2-2.1a53.2,53.2,0,0,0-26.46-13.21,71.37,71.37,0,0,0-10.82-.78c-20.43.05-32.82,5.87-45.92,12-5.35,2.52-10.82,5.08-16.92,7.34a62.67,62.67,0,0,1-15.79,4.55c-11.76,2.26-22.66-.32-30.81-7.35-5.75-5-10.68-13-11.64-20.39a32,32,0,0,1-.31-7.06,11.78,11.78,0,0,1,.74-3.4.49.49,0,0,0-.26-.57.43.43,0,0,0-.51.05c-9.63,7.67-25.11,27.63-28.28,50.75-1.65,12,.67,25.65,9.9,35C102.46,115.75,102.82,116.07,103.16,116.39Z"/><path class="cls-1" d="M208.16,206.13a94.26,94.26,0,0,0,20.35-5.21,99.65,99.65,0,0,0,60.32-63.12.51.51,0,0,0-.82-.53,80.08,80.08,0,0,1-20.56,13.3c-21.46,9.78-37.38,9.62-52.77,9.47-9.87-.09-19.19-.18-30.28,2.2-7.91,1.7-13.56,5.8-16.33,11.88a20.79,20.79,0,0,0-.39,16.07,24.44,24.44,0,0,0,10.56,11.43C188.77,207.38,202.85,206.66,208.16,206.13Z"/><path class="cls-3" d="M141.81,49.33c5,4.42,11.85,5.86,19.76,4.19,11.09-2.35,19.57-6.23,28.54-10.34,14-6.42,28.46-13,52-12.87a80.22,80.22,0,0,1,24.2,3.75.5.5,0,0,0,.52-.81,99.6,99.6,0,0,0-80.81-33,93.1,93.1,0,0,0-20.71,3.54c-5.06,1.67-18.21,6.76-25.47,16.31a24.41,24.41,0,0,0-5,14.75A20.79,20.79,0,0,0,141.81,49.33Z"/><path class="cls-4" d="M156.12,201.17l.39.17a.49.49,0,0,0,.6-.71s-.57-1-.84-1.46a35.14,35.14,0,0,1-1.09-30.95c4.64-10.15,14-17.2,26.25-19.84,12.62-2.71,23.18-2.61,33.39-2.51,14.48.15,28.16.28,46.75-8.2a67.28,67.28,0,0,0,15.74-9.85c1.88-1.65,3.61-3.33,5.22-5,7.83-8.57,10.26-16.73,10.86-19.22v0a31.24,31.24,0,0,0-.11-11.89,22.15,22.15,0,0,0-8.8-13.25c-7.77-5.45-19.65-6.21-34.36-2.2-18.85,5.13-36.77,19.53-52.57,32.22-4.74,3.81-9.22,7.41-13.45,10.52-18,13.27-37.31,20.18-54.94,20.18a59,59,0,0,1-24.18-5,44.58,44.58,0,0,1-12.81-8.55.5.5,0,0,0-.85.44C97.64,160.12,125.07,188.9,156.12,201.17Z"/></g></g></svg>